<svg width="25" height="25" viewBox="0 0 25 25" fill="none" xmlns="http://www.w3.org/2000/svg">
<g clip-path="url(#clip0_485_585)">
<path fill-rule="evenodd" clip-rule="evenodd" d="M12.5112 0C5.5933 0 0.000854492 5.63367 0.000854492 12.6033C0.000854492 18.1745 3.58413 22.8904 8.55508 24.5595C9.17657 24.685 9.40423 24.2883 9.40423 23.9546C9.40423 23.6625 9.38374 22.6609 9.38374 21.6174C5.90367 22.3688 5.17897 20.115 5.17897 20.115C4.6197 18.6544 3.79104 18.279 3.79104 18.279C2.65201 17.5069 3.87401 17.5069 3.87401 17.5069C5.13749 17.5904 5.80047 18.8006 5.80047 18.8006C6.91875 20.7201 8.72076 20.1778 9.44571 19.8438C9.54916 19.03 9.88078 18.4667 10.2329 18.1537C7.45728 17.8616 4.53699 16.7766 4.53699 11.9355C4.53699 10.5583 5.03377 9.43154 5.82095 8.55525C5.69676 8.24232 5.26168 6.94837 5.94541 5.21653C5.94541 5.21653 7.00172 4.8826 9.38348 6.51022C10.4032 6.23434 11.4548 6.094 12.5112 6.09282C13.5675 6.09282 14.6443 6.23904 15.6387 6.51022C18.0207 4.8826 19.077 5.21653 19.077 5.21653C19.7607 6.94837 19.3254 8.24232 19.2012 8.55525C20.0091 9.43154 20.4854 10.5583 20.4854 11.9355C20.4854 16.7766 17.5651 17.8406 14.7688 18.1537C15.2246 18.5502 15.6179 19.3012 15.6179 20.4907C15.6179 22.1808 15.5974 23.5372 15.5974 23.9544C15.5974 24.2883 15.8253 24.685 16.4466 24.5597C21.4175 22.8901 25.0008 18.1745 25.0008 12.6033C25.0213 5.63367 19.4084 0 12.5112 0Z" fill="#24292F"/>
</g>
<defs>
<clipPath id="clip0_485_585">
<rect width="25" height="25" fill="white" transform="translate(0.000854492)"/>
</clipPath>
</defs>
</svg>
