<svg width="25" height="25" viewBox="0 0 25 25" fill="none" xmlns="http://www.w3.org/2000/svg">
<g clip-path="url(#clip0_485_584)">
<path d="M12.5007 10.2271V15.068H19.2279C18.9325 16.6248 18.046 17.943 16.7165 18.8294L20.7733 21.9771C23.137 19.7954 24.5006 16.5908 24.5006 12.784C24.5006 11.8976 24.4211 11.0453 24.2733 10.2272L12.5007 10.2271Z" fill="#4285F4"/>
<path d="M5.49531 14.8794L4.58035 15.5798L1.34166 18.1025C3.39847 22.182 7.61407 25.0002 12.5004 25.0002C15.8753 25.0002 18.7048 23.8866 20.773 21.9775L16.7162 18.8298C15.6026 19.5798 14.1821 20.0344 12.5004 20.0344C9.25041 20.0344 6.48913 17.8412 5.50042 14.8866L5.49531 14.8794Z" fill="#34A853"/>
<path d="M1.34167 6.89795C0.48944 8.5797 0.000854492 10.4775 0.000854492 12.5001C0.000854492 14.5228 0.48944 16.4206 1.34167 18.1023C1.34167 18.1136 5.50083 14.8751 5.50083 14.8751C5.25083 14.1251 5.10306 13.3297 5.10306 12.5C5.10306 11.6704 5.25083 10.875 5.50083 10.125L1.34167 6.89795Z" fill="#FBBC05"/>
<path d="M12.5007 4.97727C14.3416 4.97727 15.9779 5.61362 17.2847 6.84091L20.8642 3.26141C18.6938 1.23871 15.8757 0 12.5007 0C7.61433 0 3.39847 2.80681 1.34166 6.89774L5.50069 10.125C6.48927 7.17043 9.25067 4.97727 12.5007 4.97727Z" fill="#EA4335"/>
</g>
<defs>
<clipPath id="clip0_485_584">
<rect width="25" height="25" fill="white" transform="translate(0.000854492)"/>
</clipPath>
</defs>
</svg>
